<svg width="120" height="120" viewBox="0 0 120 120" xmlns="http://www.w3.org/2000/svg">
  <defs>
    <linearGradient id="ke-grad" x1="0" y1="0" x2="1" y2="1">
      <stop offset="0" stop-color="#22c55e" />
      <stop offset="1" stop-color="#86efac" />
    </linearGradient>
  </defs>
  <rect x="6" y="6" width="108" height="108" rx="24" fill="#020617" />
  <rect x="16" y="20" width="88" height="80" rx="20" fill="#0f172a" />
  <path
    d="M60 30c-10 6-18 16-18 30 0 11 6 20 18 30 12-10 18-19 18-30 0-14-8-24-18-30z"
    fill="url(#ke-grad)"
  />
  <path
    d="M60 44l-6 8 6 6 6-6-6-8z"
    fill="#022c22"
  />
  <path
    d="M48 70c2 4 6 7 12 7s10-3 12-7"
    stroke="#022c22"
    stroke-width="2.5"
    stroke-linecap="round"
  />
  <text
    x="60"
    y="26"
    text-anchor="middle"
    font-family="system-ui, sans-serif"
    font-size="13"
    font-weight="700"
    fill="#e5e7eb"
    letter-spacing="3"
  >
    KESTRELS
  </text>
</svg>

